<?xml version="1.0" standalone="no"?>
<!DOCTYPE svg PUBLIC "-//W3C//DTD SVG 20010904//EN"
 "http://www.w3.org/TR/2001/REC-SVG-20010904/DTD/svg10.dtd">
<svg version="1.0" xmlns="http://www.w3.org/2000/svg"
 width="70" height="70" viewBox="0 0 96.000000 96.000000"
 preserveAspectRatio="xMidYMid meet">
<metadata>
Created by potrace 1.16, written by Peter Selinger 2001-2019
</metadata>
<g transform="translate(0.000000,96.000000) scale(0.100000,-0.100000)"
fill="#000000" stroke="none">
<path d="M222 842 c-20 -3 -22 -7 -16 -40 4 -20 15 -53 25 -73 l18 -36 -39
-18 c-46 -21 -95 -69 -109 -108 -16 -41 -13 -147 4 -198 21 -58 76 -133 125
-167 29 -20 39 -34 40 -54 l0 -28 236 0 c264 0 283 4 332 68 27 35 27 37 30
224 l3 188 -30 0 c-31 0 -31 -1 -31 -52 0 -70 -15 -120 -44 -147 l-23 -22 5
75 c6 93 0 116 -40 161 -47 54 -96 75 -173 75 -36 0 -65 4 -65 8 0 5 14 28 30
51 29 40 30 42 14 66 -21 33 -27 32 -62 -10 -26 -32 -30 -34 -42 -20 -32 38
-127 67 -188 57z m162 -247 l36 -24 36 24 c64 44 155 30 203 -31 26 -33 28
-106 5 -164 l-16 -40 -189 0 -189 0 0 -45 c0 -25 -4 -45 -9 -45 -13 0 -59 64
-81 112 -25 55 -26 139 -3 175 43 65 140 84 207 38z m416 -314 c-18 -69 -110
-125 -110 -66 0 21 -5 25 -30 25 -27 0 -30 -3 -30 -30 0 -27 -3 -30 -30 -30
-27 0 -30 3 -30 30 0 27 -3 30 -30 30 -27 0 -30 -3 -30 -30 0 -27 -3 -30 -30
-30 -27 0 -30 3 -30 30 0 27 -3 30 -30 30 -27 0 -30 -3 -30 -30 0 -27 -3 -30
-30 -30 l-30 0 0 60 0 60 208 0 c184 0 210 2 237 19 36 21 40 16 25 -38z"/>
</g>
</svg>
