<?xml version="1.0" encoding="UTF-8" standalone="yes"?>
<!-- Created with sK1/UniConvertor (http://sk1project.org/) -->
<svg xmlns="http://www.w3.org/2000/svg" xmlns:xlink="http://www.w3.org/1999/xlink"
  width="130pt" height="130pt" viewBox="0 0 100 100"
  fill-rule="evenodd">
<g>
<path style="stroke:none; fill:#ffffff" d="M 0 0L 0 80L 80 80L 80 0L 0 0z"/>
<path style="stroke:none; fill:#efbc1b" d="M 65.0543 9.66912C 62.0478 11.4049 64.7392 16.0666 67.7457 14.3309C 70.7521 12.5951 68.0608 7.93335 65.0543 9.66912z"/>
<path style="stroke:none; fill:#f9cd56" d="M 60.8 9.6L 60.8 11.2L 62.4 11.2L 62.4 9.6L 60.8 9.6z"/>
<path style="stroke:none; fill:#fbdfa1" d="M 11.2 47.2C 14.0745 48.6658 15.1419 50.2518 12.8 52.8C 16.8679 59.3907 22.0541 65.2906 29.6 67.9142C 53.112 76.0886 75.1865 53.8362 68.1716 30.4C 62.0295 9.87968 34.1576 4.3215 19.2747 18.5475C 10.8333 26.6163 10.3482 36.406 11.2 47.2z"/>
<path style="stroke:none; fill:#fff4dd" d="M 47.7334 11.4666C 47.3778 11.8222 48.2222 11.7778 48.2666 11.7334C 48.6222 11.3778 47.7778 11.4222 47.7334 11.4666z"/>
<path style="stroke:none; fill:#fad2ce" d="M 68 17.6L 68.8 18.4L 68 17.6z"/>
<path style="stroke:none; fill:#ed3d53" d="M 68.8 17.6L 68 18.4L 68 20L 68.8 20.8L 70.4 20.8L 71.2 20L 71.2 18.4L 70.4 17.6L 68.8 17.6z"/>
<path style="stroke:none; fill:#fad2ce" d="M 70.4 17.6L 71.2 18.4L 70.4 17.6M 68 20L 68.8 20.8L 68 20M 8.8 21.6L 9.6 22.4L 8.8 21.6z"/>
<path style="stroke:none; fill:#ed3d53" d="M 9.6 21.6L 8.8 22.4L 8.8 24L 9.6 24.8L 11.2 24.8L 12 24L 12 22.4L 11.2 21.6L 9.6 21.6z"/>
<path style="stroke:none; fill:#fad2ce" d="M 11.2 21.6L 12 22.4L 11.2 21.6M 8.8 24L 9.6 24.8L 8.8 24z"/>
<path style="stroke:none; fill:#513d3a" d="M 25.6 26.4C 27.9156 25.9574 29.6844 25.9574 32 26.4C 29.659 24.0455 27.941 24.0455 25.6 26.4M 48.8 26.4C 51.1156 25.9574 52.8844 25.9574 55.2 26.4C 52.8591 24.0455 51.1409 24.0455 48.8 26.4z"/>
<path style="stroke:none; fill:#638d8f" d="M 28.5334 25.0666C 28.1778 25.4222 29.0222 25.3778 29.0666 25.3334C 29.4222 24.9778 28.5778 25.0222 28.5334 25.0666M 51.7334 25.0666C 51.3778 25.4222 52.2222 25.3778 52.2666 25.3334C 52.6222 24.9778 51.7778 25.0222 51.7334 25.0666z"/>
<path style="stroke:none; fill:#79cdd3" d="M 27.2 25.6L 27.2 55.2L 30.4 55.2L 30.4 25.6L 27.2 25.6M 50.4 25.6L 50.4 55.2L 53.6 55.2L 53.6 25.6L 50.4 25.6z"/>
<path style="stroke:none; fill:#462b29" d="M 25.6 26.4C 25.6 33.47 27.3794 43.2674 24 49.6C 24.9362 51.2599 25.3534 52.5097 25.6 54.4L 26.4 54.4C 26.4 46.3 28.7291 33.857 25.6 26.4z"/>
<path style="stroke:none; fill:#638d8f" d="M 26.4 26.4L 26.4 54.4L 27.2 54.4C 27.2 46.3 29.5291 33.857 26.4 26.4M 30.4 26.4L 30.4 54.4L 31.2 54.4C 31.2 46.3 33.5291 33.857 30.4 26.4z"/>
<path style="stroke:none; fill:#462b29" d="M 31.2 26.4L 31.2 54.4L 32 54.4L 32 43.2L 48.8 43.2L 48.8 54.4L 49.6 54.4L 49.6 26.4L 48.8 26.4L 48.8 37.6L 32 37.6C 32 33.9671 32.6154 29.7732 31.2 26.4z"/>
<path style="stroke:none; fill:#638d8f" d="M 49.6 26.4L 49.6 54.4L 50.4 54.4C 50.4 46.3 52.7291 33.857 49.6 26.4M 53.6 26.4L 53.6 54.4L 54.4 54.4C 54.4 46.3 56.7291 33.857 53.6 26.4z"/>
<path style="stroke:none; fill:#462b29" d="M 54.4 26.4L 54.4 54.4L 55.2 54.4C 55.4466 52.5097 55.8638 51.2599 56.8 49.6C 52.9918 42.4642 57.431 33.6234 54.4 26.4z"/>
<path style="stroke:none; fill:#fff4dd" d="M 63.2 26.4L 63.2 28L 64.8 28L 64.8 26.4L 63.2 26.4z"/>
<path style="stroke:none; fill:#462b29" d="M 28.8 27.2L 28.8 31.2L 29.6 31.2C 29.5299 29.6287 29.4231 28.6152 28.8 27.2M 52 27.2L 52 31.2L 52.8 31.2C 52.7299 29.6287 52.6231 28.6152 52 27.2z"/>
<path style="stroke:none; fill:#513d3a" d="M 20 32C 22.1002 31.5991 23.5161 31.5402 25.6 32C 23.851 29.3412 22.0788 29.9009 20 32M 55.2 32C 57.2839 31.5402 58.6998 31.5991 60.8 32C 58.7212 29.9009 56.949 29.3412 55.2 32z"/>
<path style="stroke:none; fill:#638d8f" d="M 22.9334 30.6666C 22.5778 31.0222 23.4222 30.9778 23.4666 30.9334C 23.8222 30.5778 22.9778 30.6222 22.9334 30.6666M 57.3334 30.6666C 56.9778 31.0222 57.8222 30.9778 57.8666 30.9334C 58.2222 30.5778 57.3778 30.6222 57.3334 30.6666z"/>
<path style="stroke:none; fill:#79cdd3" d="M 21.6 31.2L 21.6 49.6L 24.8 49.6L 24.8 31.2L 21.6 31.2M 56 31.2L 56 49.6L 59.2 49.6L 59.2 31.2L 56 31.2z"/>
<path style="stroke:none; fill:#462b29" d="M 20 32C 19.8883 35.5247 18.4302 38.2559 17.6 41.6L 18.4 41.6L 19.2 38.4L 20 38.4L 20 48.8L 20.8 48.8C 20.8 43.6511 22.0004 36.7672 20 32z"/>
<path style="stroke:none; fill:#638d8f" d="M 20.8 32L 20.8 48.8L 21.6 48.8C 21.6 43.6511 22.8004 36.7672 20.8 32M 24.8 32L 24.8 48.8L 25.6 48.8C 25.6 43.6511 26.8004 36.7672 24.8 32z"/>
<path style="stroke:none; fill:#462b29" d="M 28.8 32L 28.8 42.4L 29.6 42.4C 29.6 38.9893 30.1289 35.167 28.8 32M 52 32L 52 42.4L 52.8 42.4C 52.8 38.9893 53.3289 35.167 52 32z"/>
<path style="stroke:none; fill:#638d8f" d="M 55.2 32L 55.2 48.8L 56 48.8C 56 43.6511 57.2004 36.7672 55.2 32M 59.2 32L 59.2 48.8L 60 48.8C 60 43.6511 61.2004 36.7672 59.2 32z"/>
<path style="stroke:none; fill:#462b29" d="M 60 32L 60 48.8L 60.8 48.8L 60.8 38.4L 61.6 38.4L 62.4 41.6L 63.2 41.6C 62.4194 38.4554 61.2897 34.9565 60 32M 23.2 32.8L 23.2 36.8L 24 36.8C 23.9299 35.2287 23.8231 34.2152 23.2 32.8M 57.6 32.8L 57.6 36.8L 58.4 36.8C 58.3299 35.2287 58.2231 34.2152 57.6 32.8z"/>
<path style="stroke:none; fill:#ae926d" d="M 18.4 37.6L 19.2 38.4L 18.4 37.6M 61.6 37.6L 62.4 38.4L 61.6 37.6M 17.6 38.4L 18.4 39.2L 17.6 38.4z"/>
<path style="stroke:none; fill:#6b5a69" d="M 19.2 38.4L 20 39.2L 19.2 38.4z"/>
<path style="stroke:none; fill:#462b29" d="M 23.2 38.4L 23.2 48L 24 48C 24 44.8134 24.4412 41.358 23.2 38.4z"/>
<path style="stroke:none; fill:#777686" d="M 32 38.4L 32 39.2L 48.8 39.2C 44.0328 37.1996 37.1489 38.4 32 38.4z"/>
<path style="stroke:none; fill:#462b29" d="M 57.6 38.4L 57.6 48L 58.4 48C 58.4 44.8134 58.8412 41.358 57.6 38.4z"/>
<path style="stroke:none; fill:#6b5a69" d="M 60.8 38.4L 61.6 39.2L 60.8 38.4z"/>
<path style="stroke:none; fill:#ae926d" d="M 62.4 38.4L 63.2 39.2L 62.4 38.4z"/>
<path style="stroke:none; fill:#777686" d="M 18.4 39.2L 18.4 41.6L 19.2 41.6C 18.999 40.4387 18.9478 40.1987 18.4 39.2z"/>
<path style="stroke:none; fill:#a1a1cd" d="M 19.2 39.2L 19.2 41.6L 20 41.6C 19.799 40.4387 19.7478 40.1987 19.2 39.2M 32 39.2L 32 41.6L 48.8 41.6L 48.8 39.2L 32 39.2M 60.8 39.2L 60.8 41.6L 61.6 41.6C 61.399 40.4387 61.3478 40.1987 60.8 39.2z"/>
<path style="stroke:none; fill:#777686" d="M 61.6 39.2L 61.6 41.6L 62.4 41.6C 62.199 40.4387 62.1478 40.1986 61.6 39.2z"/>
<path style="stroke:none; fill:#ffffff" d="M 14.0821 41.7253C 12.6958 42.6516 14.1314 44.8011 15.5179 43.8747C 16.9042 42.9484 15.4686 40.7989 14.0821 41.7253z"/>
<path style="stroke:none; fill:#ae926d" d="M 17.6 41.6C 18.0361 42.9082 17.8918 42.7639 19.2 43.2C 18.7639 41.8918 18.9082 42.0361 17.6 41.6z"/>
<path style="stroke:none; fill:#513d3a" d="M 18.4 41.6C 18.8361 42.9082 18.6918 42.7639 20 43.2L 20 41.6L 18.4 41.6z"/>
<path style="stroke:none; fill:#777686" d="M 32 41.6L 32 42.4L 48.8 42.4C 44.0328 40.3996 37.1489 41.6 32 41.6z"/>
<path style="stroke:none; fill:#513d3a" d="M 60.8 41.6L 60.8 43.2C 62.1081 42.764 61.9639 42.9082 62.4 41.6L 60.8 41.6z"/>
<path style="stroke:none; fill:#ae926d" d="M 62.4 41.6L 63.2 42.4L 62.4 41.6M 61.6 42.4L 62.4 43.2L 61.6 42.4z"/>
<path style="stroke:none; fill:#fff4dd" d="M 10.4 43.2L 10.4 45.6L 11.2 45.6C 10.999 44.4387 10.9478 44.1986 10.4 43.2z"/>
<path style="stroke:none; fill:#462b29" d="M 28.8 44L 28.8 53.6L 29.6 53.6C 29.6 50.4134 30.0412 46.958 28.8 44M 52 44L 52 53.6L 52.8 53.6C 52.8 50.4134 53.2412 46.958 52 44z"/>
<path style="stroke:none; fill:#f9cd56" d="M 10.6543 48.0691C 7.63736 49.811 10.3099 54.3626 13.3457 52.6098C 16.3529 50.8737 13.6034 46.3666 10.6543 48.0691z"/>
<path style="stroke:none; fill:#fff4dd" d="M 68.2666 47.7334C 68.2222 47.7778 68.1778 48.6222 68.5334 48.2666C 68.5778 48.2222 68.6222 47.3778 68.2666 47.7334z"/>
<path style="stroke:none; fill:#513d3a" d="M 20 48.8C 21.3738 50.2718 22.0525 50.6789 24 51.2L 24 50.4L 20 48.8M 59.2 48.8C 58.251 49.749 57.933 50.0223 56.8 50.4L 56.8 51.2C 58.4867 50.7323 59.8405 50.5222 59.2 48.8z"/>
<path style="stroke:none; fill:#836952" d="M 60 48.8L 60.8 49.6L 60 48.8z"/>
<path style="stroke:none; fill:#777686" d="M 22.9334 49.8666C 22.5778 50.2222 23.4222 50.1778 23.4666 50.1334C 23.8222 49.7778 22.9778 49.8222 22.9334 49.8666M 57.3334 49.8666C 56.9778 50.2222 57.8222 50.1778 57.8666 50.1334C 58.2222 49.7778 57.3778 49.8222 57.3334 49.8666z"/>
<path style="stroke:none; fill:#836952" d="M 24 50.4L 24.8 51.2L 24 50.4M 56 50.4L 56.8 51.2L 56 50.4M 58.4 50.4L 59.2 51.2L 58.4 50.4z"/>
<path style="stroke:none; fill:#efbc1b" d="M 16 52.8L 16 54.4L 17.6 54.4L 17.6 52.8L 16 52.8z"/>
<path style="stroke:none; fill:#513d3a" d="M 25.6 54.4C 27.6469 56.4307 29.3986 56.909 31.2 54.4C 29.1161 54.8598 27.7002 54.8009 25.6 54.4z"/>
<path style="stroke:none; fill:#836952" d="M 31.2 54.4L 32 55.2L 31.2 54.4z"/>
<path style="stroke:none; fill:#513d3a" d="M 48.8 54.4C 50.8469 56.4308 52.5986 56.909 54.4 54.4C 52.3161 54.8598 50.9002 54.8009 48.8 54.4z"/>
<path style="stroke:none; fill:#836952" d="M 54.4 54.4L 55.2 55.2L 54.4 54.4z"/>
<path style="stroke:none; fill:#777686" d="M 28.5334 55.4666C 28.1778 55.8222 29.0222 55.7778 29.0666 55.7334C 29.4222 55.3778 28.5778 55.4222 28.5334 55.4666M 51.7334 55.4666C 51.3778 55.8222 52.2222 55.7778 52.2666 55.7334C 52.6222 55.3778 51.7778 55.4222 51.7334 55.4666z"/>
<path style="stroke:none; fill:#836952" d="M 29.6 56L 30.4 56.8L 29.6 56M 52.8 56L 53.6 56.8L 52.8 56z"/>
<path style="stroke:none; fill:#f9cd56" d="M 64 59.2L 63.2 60L 63.2 61.6L 64 62.4L 65.6 62.4L 66.4 61.6L 66.4 60L 65.6 59.2L 64 59.2z"/>
<path style="stroke:none; fill:#fad2ce" d="M 18.4 68L 19.2 68.8L 18.4 68z"/>
<path style="stroke:none; fill:#ed3d53" d="M 19.2 68L 18.4 68.8L 18.4 70.4L 19.2 71.2L 20.8 71.2L 21.6 70.4L 21.6 68.8L 20.8 68L 19.2 68z"/>
<path style="stroke:none; fill:#fad2ce" d="M 20.8 68L 21.6 68.8L 20.8 68z"/>
<path style="stroke:none; fill:#fff4dd" d="M 47.7334 68.2666C 47.3778 68.6222 48.2222 68.5778 48.2666 68.5334C 48.6222 68.1778 47.7778 68.2222 47.7334 68.2666z"/>
<path style="stroke:none; fill:#fad2ce" d="M 18.4 70.4L 19.2 71.2L 18.4 70.4z"/>
</g>
</svg>