<?xml version="1.0" encoding="UTF-8" standalone="yes"?>
<!-- Created with sK1/UniConvertor (http://sk1project.org/) -->
<svg xmlns="http://www.w3.org/2000/svg" xmlns:xlink="http://www.w3.org/1999/xlink"
  width="130pt" height="130pt" viewBox="0 0 80 80"
  fill-rule="evenodd">
<g>
<path style="stroke:none; fill:#ffffff" d="M 0 0L 0 80L 80 80L 80 0L 0 0z"/>
<path style="stroke:none; fill:#efbc1d" d="M 65.0543 9.66912C 62.0478 11.4049 64.7392 16.0666 67.7457 14.3309C 70.7521 12.5951 68.0608 7.93335 65.0543 9.66912z"/>
<path style="stroke:none; fill:#f9c279" d="M 60.8 9.6L 60.8 11.2L 62.4 11.2L 62.4 9.6L 60.8 9.6z"/>
<path style="stroke:none; fill:#e7ebb7" d="M 11.2 47.2C 14.0745 48.6658 15.1419 50.2518 12.8 52.8C 17.7216 60.7738 24.7537 67.7287 34.4 69.3395C 56.0063 72.9475 75.7917 51.618 68.2402 30.4C 61.0605 10.227 33.6466 3.47845 18.5475 19.2747C 10.99 27.1812 9.89536 36.8769 11.2 47.2z"/>
<path style="stroke:none; fill:#99866c" d="M 68.8 17.6L 68 18.4L 68 20L 68.8 20.8L 70.4 20.8L 71.2 20L 71.2 18.4L 70.4 17.6L 68.8 17.6z"/>
<path style="stroke:none; fill:#ab6e68" d="M 35.2 19.2L 34.4 20.8L 36 20.8C 36 19.3174 36.2398 19.7198 35.2 19.2z"/>
<path style="stroke:none; fill:#855e52" d="M 36 19.2C 36.9782 20.1562 37.136 20.2531 38.4 20.8C 37.4218 19.8438 37.264 19.7469 36 19.2z"/>
<path style="stroke:none; fill:#f9c279" d="M 36 20C 34.8327 23.949 33.852 30.9519 37.6 33.6C 37.6 29.2883 38.6918 23.5531 36 20z"/>
<path style="stroke:none; fill:#482c2b" d="M 34.4 20.8L 34.4 29.6C 24.6342 24.3948 22.6755 33.6826 26.4 40.8C 29.3117 39.1658 31.1145 38.3067 34.4 39.2C 34.6344 34.113 40.0919 35.2 44 35.2L 44 34.4L 38.4 34.4L 38.4 20.8L 37.6 20.8L 37.6 33.6C 33.8838 29.9607 36.2416 25.1888 34.4 20.8z"/>
<path style="stroke:none; fill:#99866c" d="M 40 20.8L 40 27.2L 40.8 27.2C 40.7942 24.9316 40.8782 22.8902 40 20.8z"/>
<path style="stroke:none; fill:#ffffff" d="M 62.4 25.6L 62.4 28L 64.8 28L 64.8 25.6L 62.4 25.6z"/>
<path style="stroke:none; fill:#99866c" d="M 28 27.2L 28.8 28L 28 27.2z"/>
<path style="stroke:none; fill:#684d40" d="M 28.8 27.2L 28.8 28L 31.2 28C 30.2013 27.4522 29.9613 27.401 28.8 27.2z"/>
<path style="stroke:none; fill:#99866c" d="M 31.2 27.2L 32 28L 31.2 27.2M 26.4 28L 27.2 28.8L 26.4 28M 32.8 28L 33.6 28.8L 32.8 28M 33.6 28.8L 34.4 29.6L 33.6 28.8M 40 28.8L 40 32L 40.8 32C 40.6607 30.6518 40.5464 30.0048 40 28.8z"/>
<path style="stroke:none; fill:#bab891" d="M 24 29.6L 24.8 30.4L 24 29.6z"/>
<path style="stroke:none; fill:#f9c279" d="M 26.4 30.4C 25.2004 35.3632 28.1681 37.3182 32.8 36L 32.8 34.4C 30.6699 32.9626 28.7357 31.4666 26.4 30.4z"/>
<path style="stroke:none; fill:#ab6e68" d="M 28 30.4L 28.8 31.2L 28 30.4z"/>
<path style="stroke:none; fill:#8d6d56" d="M 23.2 31.2L 24 32L 23.2 31.2z"/>
<path style="stroke:none; fill:#b88562" d="M 28.8 31.2L 29.6 32L 28.8 31.2M 29.6 32L 30.4 32.8L 29.6 32z"/>
<path style="stroke:none; fill:#ab6e68" d="M 35.2 32L 36 32.8L 35.2 32z"/>
<path style="stroke:none; fill:#ffffff" d="M 14.8821 33.7253C 13.4958 34.6516 14.9314 36.8011 16.3179 35.8747C 17.7042 34.9484 16.2686 32.7989 14.8821 33.7253z"/>
<path style="stroke:none; fill:#c5c59b" d="M 22.6666 33.3334C 22.6222 33.3778 22.5778 34.2222 22.9334 33.8666C 22.9778 33.8222 23.0222 32.9778 22.6666 33.3334z"/>
<path style="stroke:none; fill:#8d6d56" d="M 30.4 32.8L 31.2 33.6L 30.4 32.8M 31.2 33.6L 32 34.4L 31.2 33.6z"/>
<path style="stroke:none; fill:#bab891" d="M 38.4 33.6L 38.4 34.4L 40.8 34.4C 39.8013 33.8522 39.5613 33.801 38.4 33.6z"/>
<path style="stroke:none; fill:#8d6d56" d="M 43.2 33.6C 43.6361 34.9082 43.4918 34.7639 44.8 35.2L 44.8 33.6L 43.2 33.6z"/>
<path style="stroke:none; fill:#482c2b" d="M 44.8 33.6L 44.8 34.4L 48 34.4C 46.7951 33.8536 46.1482 33.7393 44.8 33.6z"/>
<path style="stroke:none; fill:#99866c" d="M 48 33.6L 48.8 34.4L 48 33.6z"/>
<path style="stroke:none; fill:#ab6e68" d="M 25.6 34.4L 26.4 35.2L 25.6 34.4M 33.0666 34.9334C 33.0222 34.9778 32.9778 35.8222 33.3334 35.4666C 33.3778 35.4222 33.4222 34.5778 33.0666 34.9334M 44.8 34.4L 44.8 35.2L 48.8 36C 47.3692 34.8628 46.6354 34.6421 44.8 34.4z"/>
<path style="stroke:none; fill:#684d40" d="M 48 34.4C 48.9782 35.3562 49.136 35.4531 50.4 36C 49.4218 35.0438 49.264 34.9469 48 34.4z"/>
<path style="stroke:none; fill:#855e52" d="M 23.2 35.2L 24 36L 23.2 35.2z"/>
<path style="stroke:none; fill:#f5999f" d="M 34.4 35.2C 35.5315 38.8141 37.8645 40.5083 41.6 40.8L 41.6 37.6L 42.4 37.6L 42.4 40.8L 45.6 40.8C 45.937 38.5257 46.3511 37.5904 48 36L 48 35.2C 45.7 35.2254 43.9404 35.0338 42.4 36.8C 39.7044 35.6623 37.3196 35.2619 34.4 35.2z"/>
<path style="stroke:none; fill:#b88562" d="M 39.2 35.2L 39.2 36L 41.6 36C 40.6013 35.4522 40.3613 35.401 39.2 35.2z"/>
<path style="stroke:none; fill:#ab6e68" d="M 41.8666 35.7334C 41.8222 35.7778 41.7778 36.6222 42.1334 36.2666C 42.1778 36.2222 42.2222 35.3778 41.8666 35.7334z"/>
<path style="stroke:none; fill:#bab891" d="M 23.2 36L 24 36.8L 23.2 36z"/>
<path style="stroke:none; fill:#ab6e68" d="M 32 36L 32.8 36.8L 32 36z"/>
<path style="stroke:none; fill:#855e52" d="M 33.6 36C 34.1208 37.8983 34.8836 39.1692 36 40.8L 36.8 40.8C 36.0741 38.7022 35.2654 37.4687 33.6 36z"/>
<path style="stroke:none; fill:#482c2b" d="M 45.6 40L 46.4 40C 47.683 37.8136 48.449 37.5465 50.4 39.2C 51.3608 34.9264 46.3787 36.432 45.6 40z"/>
<path style="stroke:none; fill:#99866c" d="M 50.4 36L 51.2 36.8L 50.4 36z"/>
<path style="stroke:none; fill:#855e52" d="M 24 36.8L 24.8 37.6L 24 36.8z"/>
<path style="stroke:none; fill:#b88562" d="M 28 36.8L 28 37.6L 31.2 37.6C 29.9952 37.0536 29.3482 36.9393 28 36.8z"/>
<path style="stroke:none; fill:#855e52" d="M 45.6 36.8L 46.4 37.6L 45.6 36.8z"/>
<path style="stroke:none; fill:#f9c279" d="M 47.2 36.8C 47.3563 43.4493 51.1089 49.5612 54.4 55.2C 55.341 50.7183 51.7581 38.2979 47.2 36.8z"/>
<path style="stroke:none; fill:#8d6d56" d="M 31.2 37.6L 32 38.4L 31.2 37.6z"/>
<path style="stroke:none; fill:#ab6e68" d="M 41.6 37.6L 41.6 40.8C 39.7646 40.5579 39.0308 40.3372 37.6 39.2L 36.8 39.2C 37.6102 42.981 43.2041 41.6 46.4 41.6L 46.4 40.8L 42.4 40.8C 42.2607 39.4518 42.1464 38.8048 41.6 37.6z"/>
<path style="stroke:none; fill:#d6a06f" d="M 46.4 37.6L 46.4 40L 47.2 40C 46.999 38.8387 46.9478 38.5987 46.4 37.6z"/>
<path style="stroke:none; fill:#bab891" d="M 24.8 38.4L 25.6 39.2L 24.8 38.4z"/>
<path style="stroke:none; fill:#482c2b" d="M 36 38.4L 36.8 39.2L 36 38.4z"/>
<path style="stroke:none; fill:#99866c" d="M 51.2 38.4L 52 39.2L 51.2 38.4M 25.6 39.2L 26.4 40L 25.6 39.2z"/>
<path style="stroke:none; fill:#aca683" d="M 28 39.2L 28.8 40L 28 39.2z"/>
<path style="stroke:none; fill:#684d40" d="M 32.8 39.2L 32.8 41.6L 33.6 41.6L 34.4 39.2L 32.8 39.2z"/>
<path style="stroke:none; fill:#f9c279" d="M 34.4 39.2C 32.3608 43.7787 30.3347 48.6247 29.6 53.6C 33.7351 51.0797 35.3213 43.7955 36 39.2L 34.4 39.2z"/>
<path style="stroke:none; fill:#855e52" d="M 50.9334 39.4666C 50.5778 39.8222 51.4222 39.7778 51.4666 39.7334C 51.8222 39.3778 50.9778 39.4222 50.9334 39.4666z"/>
<path style="stroke:none; fill:#99866c" d="M 27.2 40L 28 40.8L 27.2 40z"/>
<path style="stroke:none; fill:#684d40" d="M 46.1334 40.2666C 45.7778 40.6222 46.6222 40.5778 46.6666 40.5334C 47.0222 40.1778 46.1778 40.2222 46.1334 40.2666z"/>
<path style="stroke:none; fill:#b88562" d="M 50.4 40L 51.2 40.8L 50.4 40z"/>
<path style="stroke:none; fill:#482c2b" d="M 51.4666 40.5334C 51.4222 40.5778 51.3778 41.4222 51.7334 41.0666C 51.7778 41.0222 51.8222 40.1778 51.4666 40.5334M 36 40.8L 35.2 44L 36 44C 38.243 42.3002 40.4268 42.4092 43.2 42.4L 42.4 47.2L 43.2 47.2L 44 42.4L 47.2 42.4L 45.6 48L 46.4 48L 48 44.8L 52.8 55.2L 53.6 55.2C 52.1703 50.2354 49.6719 45.3317 47.2 40.8C 43.3518 41.7162 39.8482 41.7162 36 40.8z"/>
<path style="stroke:none; fill:#aca683" d="M 52 40.8L 52.8 41.6L 52 40.8M 29.8666 42.1334C 29.8222 42.1778 29.7778 43.0222 30.1334 42.6666C 30.1778 42.6222 30.2222 41.7778 29.8666 42.1334z"/>
<path style="stroke:none; fill:#b88562" d="M 32.5334 41.8666C 32.1778 42.2222 33.0222 42.1778 33.0666 42.1334C 33.4222 41.7778 32.5778 41.8222 32.5334 41.8666M 35.2 41.6L 36 42.4L 35.2 41.6z"/>
<path style="stroke:none; fill:#8d6d56" d="M 51.2 41.6L 51.2 43.2C 52.5082 42.7639 52.3639 42.9082 52.8 41.6L 51.2 41.6z"/>
<path style="stroke:none; fill:#855e52" d="M 32.2666 42.9334C 32.2222 42.9778 32.1778 43.8222 32.5334 43.4666C 32.5778 43.4222 32.6222 42.5778 32.2666 42.9334z"/>
<path style="stroke:none; fill:#aca683" d="M 36 42.4L 36.8 43.2L 36 42.4z"/>
<path style="stroke:none; fill:#d6a06f" d="M 44.2666 42.9334C 44.2222 42.9778 44.1778 43.8222 44.5334 43.4666C 44.5778 43.4222 44.6222 42.5778 44.2666 42.9334z"/>
<path style="stroke:none; fill:#f9c279" d="M 44.8 42.4C 43.4157 46.6542 41.806 50.6921 41.6 55.2L 42.4 55.2C 43.8425 50.9361 45.9475 46.9146 46.4 42.4L 44.8 42.4z"/>
<path style="stroke:none; fill:#b88562" d="M 46.6666 42.9334C 46.6222 42.9778 46.5778 43.8222 46.9334 43.4666C 46.9778 43.4222 47.0222 42.5778 46.6666 42.9334z"/>
<path style="stroke:none; fill:#684d40" d="M 52 42.4C 52.221 44.929 52.8332 47.1832 53.6 49.6L 54.4 49.6C 54.0118 46.9711 53.4177 44.6556 52 42.4z"/>
<path style="stroke:none; fill:#99866c" d="M 29.0666 43.7334C 29.0222 43.7778 28.9778 44.6222 29.3334 44.2666C 29.3778 44.2222 29.4222 43.3778 29.0666 43.7334z"/>
<path style="stroke:none; fill:#aca683" d="M 31.2 43.2L 32 44L 31.2 43.2z"/>
<path style="stroke:none; fill:#bab891" d="M 42.4 43.2L 43.2 44L 42.4 43.2M 52.8 43.2L 53.6 44L 52.8 43.2z"/>
<path style="stroke:none; fill:#482c2b" d="M 31.4666 44.5334C 31.4222 44.5778 31.3778 45.4222 31.7334 45.0666C 31.7778 45.0222 31.8222 44.1778 31.4666 44.5334z"/>
<path style="stroke:none; fill:#b88562" d="M 32 44L 32.8 44.8L 32 44z"/>
<path style="stroke:none; fill:#8d6d56" d="M 34.9334 44.2666C 34.5778 44.6222 35.4222 44.5778 35.4666 44.5334C 35.8222 44.1778 34.9778 44.2222 34.9334 44.2666z"/>
<path style="stroke:none; fill:#99866c" d="M 42.4 44L 43.2 44.8L 42.4 44M 52.8 44L 53.6 44.8L 52.8 44z"/>
<path style="stroke:none; fill:#bab891" d="M 28.5334 45.0666C 28.1778 45.4222 29.0222 45.3778 29.0666 45.3334C 29.4222 44.9778 28.5778 45.0222 28.5334 45.0666z"/>
<path style="stroke:none; fill:#684d40" d="M 34.6666 45.3334C 34.6222 45.3778 34.5778 46.2222 34.9334 45.8666C 34.9778 45.8222 35.0222 44.9778 34.6666 45.3334z"/>
<path style="stroke:none; fill:#b88562" d="M 43.4666 45.3334C 43.4222 45.3778 43.3778 46.2222 43.7334 45.8666C 43.7778 45.8222 43.8222 44.9778 43.4666 45.3334z"/>
<path style="stroke:none; fill:#aca683" d="M 47.2 44.8C 47.6361 46.1082 47.4918 45.9639 48.8 46.4C 48.3639 45.0918 48.5082 45.2361 47.2 44.8z"/>
<path style="stroke:none; fill:#855e52" d="M 48.8 44.8L 49.6 45.6L 48.8 44.8z"/>
<path style="stroke:none; fill:#99866c" d="M 28.2666 46.1334C 28.2222 46.1778 28.1778 47.0222 28.5334 46.6666C 28.5778 46.6222 28.6222 45.7778 28.2666 46.1334z"/>
<path style="stroke:none; fill:#8d6d56" d="M 30.9334 45.8666C 30.5778 46.2222 31.4222 46.1778 31.4666 46.1334C 31.8222 45.7778 30.9778 45.8222 30.9334 45.8666M 45.6 45.6L 46.4 46.4L 45.6 45.6z"/>
<path style="stroke:none; fill:#e7ebb7" d="M 47.2 45.6C 45.8861 49.4838 44.2661 53.1524 42.4 56.8L 53.6 56.8C 51.9643 52.8711 50.2445 48.6123 47.2 45.6z"/>
<path style="stroke:none; fill:#684d40" d="M 30.6666 46.9334C 30.6222 46.9778 30.5778 47.8222 30.9334 47.4666C 30.9778 47.4222 31.0222 46.5778 30.6666 46.9334z"/>
<path style="stroke:none; fill:#99866c" d="M 34.1334 46.6666C 33.7778 47.0222 34.6222 46.9778 34.6666 46.9334C 35.0222 46.5778 34.1778 46.6222 34.1334 46.6666z"/>
<path style="stroke:none; fill:#aca683" d="M 41.6 46.4L 42.4 47.2L 41.6 46.4z"/>
<path style="stroke:none; fill:#99866c" d="M 46.4 46.4L 47.2 47.2L 46.4 46.4M 53.6 46.4L 54.4 47.2L 53.6 46.4z"/>
<path style="stroke:none; fill:#f9c279" d="M 10.6543 48.0691C 7.63736 49.811 10.3099 54.3626 13.3457 52.6098C 16.3529 50.8737 13.6034 46.3666 10.6543 48.0691z"/>
<path style="stroke:none; fill:#855e52" d="M 33.8666 47.7334C 33.8222 47.7778 33.7778 48.6222 34.1334 48.2666C 34.1778 48.2222 34.2222 47.3778 33.8666 47.7334z"/>
<path style="stroke:none; fill:#684d40" d="M 41.6 47.2C 42.0361 48.5082 41.8918 48.3639 43.2 48.8L 43.2 47.2L 41.6 47.2z"/>
<path style="stroke:none; fill:#b88562" d="M 44.8 47.2L 45.6 48L 44.8 47.2z"/>
<path style="stroke:none; fill:#99866c" d="M 48.8 47.2L 49.6 48L 48.8 47.2z"/>
<path style="stroke:none; fill:#ab6e68" d="M 30.1334 48.2666C 29.7778 48.6222 30.6222 48.5778 30.6666 48.5334C 31.0222 48.1778 30.1778 48.2222 30.1334 48.2666z"/>
<path style="stroke:none; fill:#b88562" d="M 32.8 48L 33.6 48.8L 32.8 48z"/>
<path style="stroke:none; fill:#482c2b" d="M 41.6 48L 41.6 50.4L 42.4 50.4C 42.199 49.2387 42.1478 48.9986 41.6 48z"/>
<path style="stroke:none; fill:#684d40" d="M 45.3334 48.2666C 44.9778 48.6222 45.8222 48.5778 45.8666 48.5334C 46.2222 48.1778 45.3778 48.2222 45.3334 48.2666z"/>
<path style="stroke:none; fill:#8d6d56" d="M 50.4 48L 51.2 48.8L 50.4 48z"/>
<path style="stroke:none; fill:#b88562" d="M 52.8 48L 53.6 48.8L 52.8 48z"/>
<path style="stroke:none; fill:#99866c" d="M 27.2 48.8L 28 49.6L 27.2 48.8z"/>
<path style="stroke:none; fill:#855e52" d="M 29.8666 49.3334C 29.8222 49.3778 29.7778 50.2222 30.1334 49.8666C 30.1778 49.8222 30.2222 48.9778 29.8666 49.3334z"/>
<path style="stroke:none; fill:#482c2b" d="M 33.0666 49.3334C 33.0222 49.3778 32.9778 50.2222 33.3334 49.8666C 33.3778 49.8222 33.4222 48.9778 33.0666 49.3334z"/>
<path style="stroke:none; fill:#aca683" d="M 33.6 48.8L 34.4 49.6L 33.6 48.8z"/>
<path style="stroke:none; fill:#482c2b" d="M 44.8 48.8L 44 52L 44.8 52C 45.0469 50.5934 45.1252 50.1274 44.8 48.8z"/>
<path style="stroke:none; fill:#aca683" d="M 45.6 48.8L 46.4 49.6L 45.6 48.8z"/>
<path style="stroke:none; fill:#99866c" d="M 49.6 48.8L 50.4 49.6L 49.6 48.8z"/>
<path style="stroke:none; fill:#aca683" d="M 54.4 48.8L 55.2 49.6L 54.4 48.8M 26.6666 50.1334C 26.6222 50.1778 26.5778 51.0222 26.9334 50.6666C 26.9778 50.6222 27.0222 49.7778 26.6666 50.1334M 28.8 49.6L 29.6 50.4L 28.8 49.6z"/>
<path style="stroke:none; fill:#99866c" d="M 40.8 49.6L 41.6 50.4L 40.8 49.6z"/>
<path style="stroke:none; fill:#8d6d56" d="M 44 49.6L 44.8 50.4L 44 49.6M 51.2 49.6L 52 50.4L 51.2 49.6z"/>
<path style="stroke:none; fill:#855e52" d="M 53.6 49.6L 53.6 51.2C 54.9082 50.7639 54.7639 50.9082 55.2 49.6L 53.6 49.6z"/>
<path style="stroke:none; fill:#482c2b" d="M 29.0666 50.9334C 29.0222 50.9778 28.9778 51.8222 29.3334 51.4666C 29.3778 51.4222 29.4222 50.5778 29.0666 50.9334z"/>
<path style="stroke:none; fill:#b88562" d="M 29.6 50.4L 30.4 51.2L 29.6 50.4z"/>
<path style="stroke:none; fill:#8d6d56" d="M 32.5334 50.6666C 32.1778 51.0222 33.0222 50.9778 33.0666 50.9334C 33.4222 50.5778 32.5778 50.6222 32.5334 50.6666z"/>
<path style="stroke:none; fill:#855e52" d="M 41.3334 50.6666C 40.9778 51.0222 41.8222 50.9778 41.8666 50.9334C 42.2222 50.5778 41.3778 50.6222 41.3334 50.6666z"/>
<path style="stroke:none; fill:#99866c" d="M 44.8 50.4L 45.6 51.2L 44.8 50.4M 50.4 50.4L 51.2 51.2L 50.4 50.4z"/>
<path style="stroke:none; fill:#482c2b" d="M 54.4 50.4L 55.2 55.2L 56 55.2C 55.7162 53.3268 55.3798 52.0106 54.4 50.4z"/>
<path style="stroke:none; fill:#684d40" d="M 32.2666 51.7334C 32.2222 51.7778 32.1778 52.6222 32.5334 52.2666C 32.5778 52.2222 32.6222 51.3778 32.2666 51.7334z"/>
<path style="stroke:none; fill:#482c2b" d="M 41.0666 51.7334C 41.0222 51.7778 40.9778 52.6222 41.3334 52.2666C 41.3778 52.2222 41.4222 51.3778 41.0666 51.7334z"/>
<path style="stroke:none; fill:#b88562" d="M 43.2 51.2L 44 52L 43.2 51.2z"/>
<path style="stroke:none; fill:#ab6e68" d="M 52 51.2L 52.8 52L 52 51.2z"/>
<path style="stroke:none; fill:#bab891" d="M 55.2 51.2L 56 52L 55.2 51.2z"/>
<path style="stroke:none; fill:#aca683" d="M 28.2666 52.5334C 28.2222 52.5778 28.1778 53.4222 28.5334 53.0666C 28.5778 53.0222 28.6222 52.1778 28.2666 52.5334z"/>
<path style="stroke:none; fill:#8d6d56" d="M 28.8 52C 29.5194 53.6989 29.5011 53.6806 31.2 54.4L 31.2 53.6L 28.8 52z"/>
<path style="stroke:none; fill:#aca683" d="M 40 52L 40.8 52.8L 40 52z"/>
<path style="stroke:none; fill:#684d40" d="M 43.7334 52.2666C 43.3778 52.6222 44.2222 52.5778 44.2666 52.5334C 44.6222 52.1778 43.7778 52.2222 43.7334 52.2666z"/>
<path style="stroke:none; fill:#99866c" d="M 51.2 52L 52 52.8L 51.2 52z"/>
<path style="stroke:none; fill:#8d6d56" d="M 55.2 52L 56 52.8L 55.2 52z"/>
<path style="stroke:none; fill:#99866c" d="M 31.7334 53.0666C 31.3778 53.4222 32.2222 53.3778 32.2666 53.3334C 32.6222 52.9778 31.7778 53.0222 31.7334 53.0666z"/>
<path style="stroke:none; fill:#684d40" d="M 40.5334 53.0666C 40.1778 53.4222 41.0222 53.3778 41.0666 53.3334C 41.4222 52.9778 40.5778 53.0222 40.5334 53.0666z"/>
<path style="stroke:none; fill:#482c2b" d="M 43.2 52.8C 42.3016 54.3402 41.1751 56.4137 40.8 53.6L 40 53.6C 39.5914 55.1618 39.4134 55.5656 38.4 56.8L 38.4 57.6L 59.2 57.6L 59.2 56.8C 53.385 56.3148 47.443 56.8 41.6 56.8L 41.6 56C 43.0876 54.9876 43.4951 54.5781 43.2 52.8z"/>
<path style="stroke:none; fill:#aca683" d="M 44 52.8L 44.8 53.6L 44 52.8z"/>
<path style="stroke:none; fill:#ab6e68" d="M 52.8 52.8L 53.6 53.6L 52.8 52.8z"/>
<path style="stroke:none; fill:#8d6d56" d="M 54.4 52.8L 55.2 53.6L 54.4 52.8z"/>
<path style="stroke:none; fill:#482c2b" d="M 28.8 53.6L 29.6 54.4L 28.8 53.6z"/>
<path style="stroke:none; fill:#684d40" d="M 31.2 53.6L 32 54.4L 31.2 53.6z"/>
<path style="stroke:none; fill:#d6a06f" d="M 40.8 53.6L 40.8 56L 41.6 56C 41.399 54.8387 41.3478 54.5987 40.8 53.6z"/>
<path style="stroke:none; fill:#ab6e68" d="M 42.4 53.6L 43.2 54.4L 42.4 53.6z"/>
<path style="stroke:none; fill:#8d6d56" d="M 52 53.6L 52.8 54.4L 52 53.6z"/>
<path style="stroke:none; fill:#99866c" d="M 30.1334 54.6666C 29.7778 55.0222 30.6222 54.9778 30.6666 54.9334C 31.0222 54.5778 30.1778 54.6222 30.1334 54.6666z"/>
<path style="stroke:none; fill:#8d6d56" d="M 43.2 54.4L 44 55.2L 43.2 54.4z"/>
<path style="stroke:none; fill:#b88562" d="M 53.6 54.4L 54.4 55.2L 53.6 54.4z"/>
<path style="stroke:none; fill:#99866c" d="M 56 54.4L 56.8 55.2L 56 54.4z"/>
<path style="stroke:none; fill:#bab891" d="M 39.4666 55.7334C 39.4222 55.7778 39.3778 56.6222 39.7334 56.2666C 39.7778 56.2222 39.8222 55.3778 39.4666 55.7334z"/>
<path style="stroke:none; fill:#8d6d56" d="M 52.8 55.2L 53.6 56L 52.8 55.2z"/>
<path style="stroke:none; fill:#684d40" d="M 53.6 55.2L 53.6 56C 54.9471 56.1791 55.4508 56.1746 56.8 56C 55.5952 55.4536 54.9482 55.3393 53.6 55.2z"/>
<path style="stroke:none; fill:#8d6d56" d="M 41.6 56L 42.4 56.8L 41.6 56z"/>
<path style="stroke:none; fill:#99866c" d="M 53.6 56L 54.4 56.8L 53.6 56z"/>
<path style="stroke:none; fill:#aca683" d="M 56 56L 56.8 56.8L 56 56M 20.8 56.8L 21.6 57.6L 20.8 56.8z"/>
<path style="stroke:none; fill:#482c2b" d="M 21.6 56.8L 21.6 57.6L 36 57.6C 31.8221 55.8469 26.1058 56.8 21.6 56.8z"/>
<path style="stroke:none; fill:#aca683" d="M 36 56.8L 36.8 57.6L 36 56.8M 37.6 56.8L 38.4 57.6L 37.6 56.8M 59.2 56.8L 60 57.6L 59.2 56.8z"/>
<path style="stroke:none; fill:#f9c279" d="M 64 59.2L 63.2 60L 63.2 61.6L 64 62.4L 65.6 62.4L 66.4 61.6L 66.4 60L 65.6 59.2L 64 59.2z"/>
<path style="stroke:none; fill:#99866c" d="M 19.2 68L 18.4 68.8L 18.4 70.4L 19.2 71.2L 20.8 71.2L 21.6 70.4L 21.6 68.8L 20.8 68L 19.2 68z"/>
</g>
</svg>