<?xml version="1.0" standalone="no"?>
<!DOCTYPE svg PUBLIC "-//W3C//DTD SVG 20010904//EN"
 "http://www.w3.org/TR/2001/REC-SVG-20010904/DTD/svg10.dtd">
<svg version="1.0" xmlns="http://www.w3.org/2000/svg"
 width="35" height="35" viewBox="0 0 100.000000 100.000000"
 preserveAspectRatio="xMidYMid meet">
<metadata>
Created by potrace 1.16, written by Peter Selinger 2001-2019
</metadata>
<g transform="translate(0.000000,100.000000) scale(0.100000,-0.100000)"
fill="#000000" stroke="none">
<path d="M215 898 c-56 -29 -83 -56 -111 -110 -23 -46 -24 -54 -24 -288 0
-234 1 -242 24 -288 29 -58 58 -85 116 -111 41 -19 65 -21 280 -21 226 0 237
1 285 24 60 28 87 56 114 116 19 41 21 65 21 283 0 222 -1 241 -21 280 -29 58
-56 85 -111 113 -46 23 -53 24 -290 24 -226 -1 -246 -2 -283 -22z m535 -40
c48 -21 107 -89 117 -135 14 -64 10 -423 -5 -465 -17 -49 -90 -115 -139 -125
-49 -10 -397 -10 -446 0 -49 10 -122 76 -139 125 -18 52 -18 432 0 484 18 51
90 115 139 123 21 4 43 8 48 11 6 2 96 2 200 1 144 -2 198 -7 225 -19z"/>
<path d="M671 636 l-54 -34 -24 29 -25 29 -164 0 -164 0 0 -134 c0 -131 1
-134 26 -160 27 -26 27 -26 190 -26 l164 0 0 35 c0 19 2 35 5 35 3 0 27 -14
55 -31 27 -17 60 -29 72 -27 23 3 23 4 23 158 l0 155 -25 3 c-15 1 -47 -12
-79 -32z m-114 -39 c14 -14 19 -38 21 -118 l4 -101 -131 4 c-167 4 -165 2
-169 139 l-4 101 131 -4 c109 -2 133 -6 148 -21z m183 -87 c0 -55 -2 -100 -5
-100 -3 0 -30 16 -60 35 -47 29 -55 39 -55 65 0 25 8 36 53 65 28 19 55 34 60
34 4 1 7 -44 7 -99z"/>
</g>
</svg>
