<?xml version="1.0" standalone="no"?>
<!DOCTYPE svg PUBLIC "-//W3C//DTD SVG 20010904//EN"
 "http://www.w3.org/TR/2001/REC-SVG-20010904/DTD/svg10.dtd">
<svg version="1.0" xmlns="http://www.w3.org/2000/svg"
 width="35" height="35" viewBox="0 0 100.000000 100.000000"
 preserveAspectRatio="xMidYMid meet">
<metadata>
Created by potrace 1.16, written by Peter Selinger 2001-2019
</metadata>
<g transform="translate(0.000000,100.000000) scale(0.100000,-0.100000)"
fill="#000000" stroke="none">
<path d="M115 901 c-42 -26 -92 -81 -104 -114 -29 -77 -1 -345 50 -482 26 -70
95 -163 145 -196 39 -25 41 -26 224 -25 163 1 190 3 225 21 59 29 128 102 161
172 24 51 37 66 74 86 28 14 57 41 78 73 33 47 34 52 30 131 -3 72 -7 86 -33
125 -45 63 -95 88 -179 88 -118 0 -207 -65 -222 -162 l-7 -38 -56 0 c-69 0
-117 -23 -151 -74 l-24 -37 -20 28 c-12 15 -39 48 -62 73 -42 45 -74 98 -74
122 0 9 3 9 12 0 7 -7 26 -12 44 -12 46 0 114 66 114 110 0 44 -13 63 -66 99
-56 37 -113 41 -159 12z m136 -62 c21 -17 39 -35 39 -39 0 -13 -57 -70 -70
-70 -6 0 -13 7 -16 15 -8 19 -29 19 -59 -1 -53 -35 -26 -117 76 -229 34 -37
70 -88 81 -112 27 -62 68 -57 68 9 0 36 32 88 63 105 24 12 47 14 99 9 l67 -6
7 51 c8 58 36 104 83 136 26 18 48 23 97 23 57 0 67 -3 100 -32 45 -40 64 -82
64 -143 0 -74 -36 -124 -114 -162 -32 -15 -42 -27 -58 -70 -24 -65 -104 -155
-157 -176 -44 -18 -63 -19 -244 -13 l-129 4 -45 43 c-88 87 -141 245 -150 445
-6 140 2 166 69 214 52 38 80 38 129 -1z"/>
</g>
</svg>
