<?xml version="1.0" standalone="no"?>
<!DOCTYPE svg PUBLIC "-//W3C//DTD SVG 20010904//EN"
 "http://www.w3.org/TR/2001/REC-SVG-20010904/DTD/svg10.dtd">
<svg version="1.0" xmlns="http://www.w3.org/2000/svg"
  width="33" height="45" viewBox="0 0 100.000000 100.000000"
 preserveAspectRatio="xMidYMid meet">
<metadata>
Created by potrace 1.16, written by Peter Selinger 2001-2019
</metadata>
<g transform="translate(0.000000,100.000000) scale(0.100000,-0.100000)"
fill="#000000" stroke="none">
<path d="M212 808 c-7 -7 -12 -25 -12 -40 0 -27 -2 -28 -48 -28 -26 0 -53 -5
-60 -12 -7 -7 -12 -40 -12 -79 l0 -68 -37 -3 -38 -3 0 -75 0 -75 38 -3 37 -3
0 -68 c0 -39 5 -72 12 -79 7 -7 34 -12 60 -12 46 0 48 -1 48 -28 0 -15 5 -33
12 -40 16 -16 140 -16 156 0 8 8 12 49 12 120 l0 108 120 0 120 0 0 -108 c0
-71 4 -112 12 -120 16 -16 140 -16 156 0 7 7 12 25 12 40 0 27 2 28 48 28 26
0 53 5 60 12 7 7 12 40 12 79 l0 68 38 3 37 3 0 75 0 75 -37 3 -38 3 0 68 c0
39 -5 72 -12 79 -7 7 -34 12 -60 12 -46 0 -48 1 -48 28 0 42 -17 52 -90 52
-38 0 -71 -5 -78 -12 -8 -8 -12 -49 -12 -120 l0 -108 -120 0 -120 0 0 108 c0
71 -4 112 -12 120 -7 7 -40 12 -78 12 -38 0 -71 -5 -78 -12z m116 -40 c17 -17
17 -519 0 -536 -15 -15 -61 -15 -76 0 -17 17 -17 519 0 536 15 15 61 15 76 0z
m420 0 c17 -17 17 -519 0 -536 -15 -15 -61 -15 -76 0 -17 17 -17 519 0 536 15
15 61 15 76 0z m-548 -268 l0 -200 -28 0 c-49 0 -52 10 -52 200 0 190 3 200
52 200 l28 0 0 -200z m668 188 c17 -17 17 -359 0 -376 -7 -7 -25 -12 -40 -12
l-28 0 0 200 0 200 28 0 c15 0 33 -5 40 -12z m-248 -188 l0 -40 -120 0 -120 0
0 40 0 40 120 0 120 0 0 -40z"/>
</g>
</svg>
