<?xml version="1.0" standalone="no"?>
<!DOCTYPE svg PUBLIC "-//W3C//DTD SVG 20010904//EN"
 "http://www.w3.org/TR/2001/REC-SVG-20010904/DTD/svg10.dtd">
<svg version="1.0" xmlns="http://www.w3.org/2000/svg"
 width="70" height="70" viewBox="0 0 100.000000 100.000000"
 preserveAspectRatio="xMidYMid meet">
<metadata>
Created by potrace 1.16, written by Peter Selinger 2001-2019
</metadata>
<g transform="translate(0.000000,100.000000) scale(0.100000,-0.100000)"
fill="#000000" stroke="none">
<path d="M287 912 c-15 -15 -27 -35 -27 -43 0 -19 111 -129 131 -129 19 0 69
51 69 71 0 9 -9 24 -20 34 -16 14 -17 21 -8 32 17 20 -15 52 -35 35 -11 -9
-18 -8 -32 8 -25 27 -46 25 -78 -8z"/>
<path d="M545 915 c-19 -18 -25 -35 -25 -65 0 -30 6 -47 25 -65 34 -35 96 -35
130 0 35 34 35 96 0 130 -18 19 -35 25 -65 25 -30 0 -47 -6 -65 -25z"/>
<path d="M207 813 c-4 -3 -7 -18 -7 -32 0 -19 19 -45 68 -94 l68 -67 77 0 c56
0 77 -3 77 -13 0 -7 -11 -71 -25 -142 -14 -72 -25 -142 -25 -157 l0 -28 160 0
160 0 0 35 c0 35 0 35 -46 35 -40 0 -51 5 -85 39 -35 35 -39 44 -39 91 0 51 2
54 67 122 65 66 67 70 49 84 -15 11 -56 14 -171 14 l-151 0 -59 60 c-42 43
-67 60 -86 60 -14 0 -29 -3 -32 -7z"/>
<path d="M107 732 c-32 -33 -34 -53 -7 -77 16 -14 17 -21 8 -32 -17 -20 15
-52 35 -35 11 9 18 8 32 -8 10 -11 26 -20 35 -20 20 0 70 50 70 71 0 19 -111
129 -131 129 -8 0 -27 -13 -42 -28z"/>
<path d="M694 606 c-72 -72 -74 -75 -74 -124 0 -70 32 -102 102 -102 49 0 52
2 124 74 72 72 74 75 74 124 0 40 -5 54 -26 76 -22 21 -36 26 -76 26 -49 0
-52 -2 -124 -74z"/>
</g>
</svg>
